Coordinates
version=1
nRows=23
nColumns=23
inDegrees=yes

Units are S.I. units (second, meters, Newtons, ...)
If the header above contains a line with 'inDegrees', this indicates whether rotational values are in degrees (yes) or radians (no).

endheader
time	pelvis_tilt	pelvis_list	pelvis_rotation	pelvis_tx	pelvis_ty	pelvis_tz	hip_flexion_r	hip_adduction_r	hip_rotation_r	knee_angle_r	knee_angle_r_beta	ankle_angle_r	subtalar_angle_r	mtp_angle_r	hip_flexion_l	hip_adduction_l	hip_rotation_l	knee_angle_l	knee_angle_l_beta	ankle_angle_l	subtalar_angle_l	mtp_angle_l
     15.00000000	      1.69082141	      9.99690213	      8.93902967	      2.40825640	      0.89928468	      1.05515425	      5.40774461	    -14.34150067	     -9.40384613	     84.66629520	      1.47770562	     -3.30444611	    -24.67211917	      0.00000000	     20.07021416	     10.90759197	     -6.29840289	     44.40459087	      0.77500631	     19.81392209	     -1.48259567	      0.00000000
     15.00666667	      1.44934718	      9.82926478	      8.82174218	      2.40645337	      0.89803720	      1.05549569	      7.75670106	    -14.13246030	     -8.28424643	     86.07125554	      1.50222680	     -2.63718192	    -24.70986510	      0.00000000	     19.58403585	     10.69536302	     -5.98007852	     45.02189139	      0.78578024	     21.07751764	     -1.50236272	      0.00000000
     15.01333333	      0.92754656	      9.45490739	      8.68128947	      2.40480756	      0.89706187	      1.05586394	     10.43862420	    -13.67975960	     -7.16267380	     87.19486723	      1.52183752	     -1.99561007	    -24.60894639	      0.00000000	     19.28782314	     10.22934406	     -5.83075561	     45.42396169	      0.79279769	     22.24120983	     -1.20092003	      0.00000000
     15.02000000	      0.69607915	      9.09654901	      8.44011262	      2.40345973	      0.89708817	      1.05625663	     12.70401637	    -13.20644601	     -6.14752699	     87.92600709	      1.53459832	     -1.41702903	    -24.42242294	      0.00000000	     18.47338481	      9.69938762	     -5.79366450	     45.47009394	      0.79360285	     23.28587618	     -0.82841352	      0.00000000
     15.02666667	      0.66486436	      8.73231017	      8.17670369	      2.40244207	      0.89805789	      1.05654946	     14.61194071	    -12.74364802	     -5.31950241	     88.25343466	      1.54031301	     -0.87018849	    -24.17165634	      0.00000000	     17.23229505	      9.16023709	     -5.72627641	     45.13941089	      0.78783134	     24.17859430	     -0.56477514	      0.00000000
     15.03333333	      0.60479885	      8.25181570	      7.89031265	      2.40176036	      0.89955000	      1.05684146	     16.44482871	    -12.16094526	     -4.63051154	     88.22705261	      1.53985256	     -0.29761281	    -23.74057926	      0.00000000	     15.90140214	      8.37006785	     -6.00608030	     44.61538472	      0.77868536	     25.03410537	      0.55425069	      0.00000000
     15.04000000	      0.65729713	      7.81517275	      7.63505530	      2.40138192	      0.90182505	      1.05695679	     17.97934181	    -11.67938278	     -4.14112190	     87.81785334	      1.53271068	      0.25380139	    -23.37742639	      0.00000000	     14.23766879	      7.74389187	     -6.03518300	     43.66094281	      0.76202721	     25.55129287	      0.85534016	      0.00000000
     15.04666667	      0.92272181	      7.38487930	      7.32715866	      2.40149788	      0.90489819	      1.05703360	     19.10224290	    -11.23506487	     -3.83294835	     87.03089501	      1.51897567	      0.93276260	    -22.80977100	      0.00000000	     12.16147077	      7.03968975	     -6.29524670	     42.40571070	      0.74011927	     25.92414075	      1.72142161	      0.00000000
     15.05333333	      0.68782287	      6.82430851	      7.28310409	      2.40155662	      0.90773558	      1.05673463	     20.62913018	    -10.82133549	     -3.85433301	     85.97485713	      1.50054433	      1.43800804	    -22.53516598	      0.00000000	     10.62217107	      6.44958151	     -6.05428080	     41.06491316	      0.71671794	     26.19537485	      2.15418840	      0.00000000
     15.06000000	      1.44664293	      6.37247533	      6.95964837	      2.40256257	      0.91221787	      1.05675961	     20.81254296	    -10.43539763	     -4.01074435	     84.44141787	      1.47378077	      2.31972289	    -21.85381575	      0.00000000	      7.73869503	      5.51388785	     -6.84829680	     39.32608221	      0.68636962	     26.32219870	      3.88521134	      0.00000000
     15.06666667	      0.99411320	      5.77839034	      6.98338890	      2.40318593	      0.91542718	      1.05636188	     22.27498257	    -10.06187634	     -4.33031461	     82.81193038	      1.44534085	      2.95746479	    -21.63304023	      0.00000000	      6.29287787	      4.93520726	     -6.62877532	     37.66785293	      0.65742806	     26.24738244	      4.32403062	      0.00000000
     15.07333333	      1.75124452	      5.35532999	      6.80795494	      2.40466424	      0.92050633	      1.05609095	     22.10695022	     -9.88185803	     -4.95721665	     80.70309393	      1.40853471	      3.80865534	    -21.13580700	      0.00000000	      3.22548987	      4.24884334	     -6.97263821	     35.45428253	      0.61879396	     25.62426513	      5.21083029	      0.00000000
     15.08000000	      1.82329175	      4.79143073	      6.78756170	      2.40602517	      0.92478391	      1.05573001	     22.61314772	     -9.62039979	     -5.72384721	     78.44287036	      1.36908636	      4.57032642	    -20.87044382	      0.00000000	      1.05195998	      3.56328699	     -7.07810870	     33.45112333	      0.58383224	     24.92907161	      5.95585671	      0.00000000
     15.08666667	      1.78543261	      4.19732700	      6.79311793	      2.40756800	      0.92903655	      1.05539666	     23.11346157	     -9.32312262	     -6.60319928	     75.95653736	      1.32569167	      5.31340566	    -20.68653569	      0.00000000	     -0.98060242	      2.85591539	     -7.20915956	     31.44193136	      0.54876523	     23.97360817	      6.66177086	      0.00000000
     15.09333333	      1.62156642	      3.59214416	      6.79441432	      2.40916377	      0.93316088	      1.05513582	     23.63970830	     -9.02280667	     -7.58627485	     73.26955853	      1.27879504	      6.03070956	    -20.53675885	      0.00000000	     -2.81267415	      2.17032410	     -7.31343955	     29.49202009	      0.51473285	     22.69455706	      7.19824899	      0.00000000
     15.10000000	      1.36962590	      2.96601206	      6.79705196	      2.41092426	      0.93717926	      1.05497375	     24.13679057	     -8.69014534	     -8.66265018	     70.37529076	      1.22828054	      6.72538515	    -20.38571952	      0.00000000	     -4.48149816	      1.44961551	     -7.49164538	     27.62338894	      0.48211909	     21.01202786	      7.61028564	      0.00000000
     15.10666667	      1.29770041	      2.35716011	      6.73664881	      2.41280747	      0.94145515	      1.05496204	     24.30804137	     -8.30862560	     -9.79233435	     67.24304444	      1.17361252	      7.37428829	    -20.11526335	      0.00000000	     -6.31935092	      0.76303716	     -7.63341984	     25.73937425	      0.44923683	     19.10486711	      7.76950578	      0.00000000
     15.11333333	      1.16819450	      1.79559893	      6.69399287	      2.41472403	      0.94562814	      1.05501406	     24.42325788	     -7.96790961	    -11.01150377	     63.94395706	      1.11603259	      8.05180673	    -19.67677974	      0.00000000	     -8.03945209	      0.20434707	     -7.46134058	     23.88265260	      0.41683092	     16.89824572	      7.43114463	      0.00000000
     15.12000000	      0.85282533	      1.20686800	      6.55853361	      2.41659696	      0.94945272	      1.05533862	     24.68773239	     -7.49523599	    -12.13850080	     60.50409837	      1.05599573	      8.74138470	    -18.99294034	      0.00000000	     -9.43589282	     -0.36582701	     -7.36844593	     22.21177617	      0.38766863	     14.37699224	      6.78845538	      0.00000000
     15.12666667	      0.49518812	      0.56084627	      6.34434931	      2.41846430	      0.95304370	      1.05595290	     24.91416073	     -6.84036729	    -13.19850827	     56.87938844	      0.99273260	      9.33368957	    -18.15180462	      0.00000000	    -10.58347981	     -1.10443772	     -7.78274867	     20.93384151	      0.36536446	     11.92789023	      6.74979893	      0.00000000
     15.13333333	      0.18231158	     -0.01759914	      6.08998522	      2.42024166	      0.95656949	      1.05673324	     25.00446090	     -6.17651251	    -14.24170210	     53.12583247	      0.92722069	      9.98960514	    -16.84877498	      0.00000000	    -11.71667948	     -1.71350082	     -7.96326873	     19.71534124	      0.34409762	      9.29355751	      6.24250287	      0.00000000
     15.14000000	     -0.26091122	     -0.60804736	      5.74728941	      2.42185527	      0.95971620	      1.05779749	     25.19572468	     -5.35195784	    -15.08076696	     49.26268063	      0.85979598	     10.61372727	    -15.28196558	      0.00000000	    -12.50403302	     -2.36773583	     -8.38869941	     18.89180621	      0.32972422	      6.74575965	      5.86939638	      0.00000000
     15.14666667	     -0.72194479	     -1.11044103	      5.34688462	      2.42338469	      0.96262205	      1.05905494	     25.34555122	     -4.53094304	    -15.83542158	     45.34556619	      0.79142943	     11.25383737	    -13.27323481	      0.00000000	    -13.16094956	     -2.93168776	     -8.84334893	     18.27870970	      0.31902367	      4.20650352	      5.39162607	      0.00000000
